<svg width="25" height="26" viewBox="0 0 25 26" fill="none" xmlns="http://www.w3.org/2000/svg">
<g clip-path="url(#clip0_79_142)">
<path d="M12.3281 17.75C16.3359 17.75 20.2617 16.5312 22.1367 14.7617L21.2578 13.3555C19.4766 14.9023 15.9023 15.9805 12.3281 15.9805C8.75391 15.9805 5.17969 14.9023 3.39844 13.3555L2.51953 14.7617C4.39453 16.5312 8.32031 17.75 12.3281 17.75ZM12.3281 25.1914C18.375 25.1914 22.4062 22.9062 22.4062 19.6719V5.49219H20.5195V19.6719C20.5195 21.8398 17.2383 23.4219 12.3281 23.4219C7.41797 23.4219 4.13672 21.8398 4.13672 19.6719V5.49219H2.25V19.6719C2.25 22.9062 6.28125 25.1914 12.3281 25.1914ZM12.3281 10.4727C18.375 10.4727 22.4062 8.44531 22.4062 5.49219C22.4062 2.53906 18.375 0.5 12.3281 0.5C6.28125 0.5 2.25 2.53906 2.25 5.49219C2.25 8.44531 6.28125 10.4727 12.3281 10.4727ZM12.3281 8.70312C7.41797 8.70312 4.13672 7.37891 4.13672 5.49219C4.13672 3.52344 7.41797 2.15234 12.3281 2.15234C17.2383 2.15234 20.5195 3.52344 20.5195 5.49219C20.5195 7.37891 17.2383 8.70312 12.3281 8.70312Z" fill="#007AFF"/>
</g>
<defs>
<clipPath id="clip0_79_142">
<rect width="20.1562" height="24.7148" fill="white" transform="translate(2.25 0.5)"/>
</clipPath>
</defs>
</svg>
