<svg width="28" height="24" viewBox="0 0 28 24" fill="none" xmlns="http://www.w3.org/2000/svg">
<g clip-path="url(#clip0_79_1240)">
<path d="M4.42969 22.4453H24.0352C26.1328 22.4453 27.3633 21.2266 27.3633 18.8125V6.77734C27.3633 4.36328 26.1211 3.14453 23.6836 3.14453H12.4336C11.6367 3.14453 11.1562 2.95703 10.5703 2.45312L9.85547 1.86719C9.08203 1.21094 8.48438 1 7.32422 1H3.98438C1.93359 1 0.75 2.17188 0.75 4.52734V18.8125C0.75 21.2383 1.98047 22.4453 4.42969 22.4453ZM4.45312 20.5586C3.28125 20.5586 2.63672 19.9375 2.63672 18.7188V4.63281C2.63672 3.47266 3.24609 2.875 4.37109 2.875H6.84375C7.61719 2.875 8.08594 3.07422 8.68359 3.57812L9.39844 4.17578C10.1602 4.80859 10.7812 5.03125 11.9414 5.03125H23.6484C24.8086 5.03125 25.4766 5.66406 25.4766 6.88281V18.7305C25.4766 19.9375 24.8086 20.5586 23.6484 20.5586H4.45312ZM1.89844 9.32031H26.2031V7.55078H1.89844V9.32031Z" fill="#007AFF"/>
</g>
<defs>
<clipPath id="clip0_79_1240">
<rect width="26.6133" height="21.5977" fill="white" transform="translate(0.75 1)"/>
</clipPath>
</defs>
</svg>
