<svg width="25" height="25" viewBox="0 0 25 25" fill="none" xmlns="http://www.w3.org/2000/svg">
<g clip-path="url(#clip0_79_1579)">
<path d="M12.2031 24.4062C18.7422 24.4062 24.1562 18.9805 24.1562 12.4531C24.1562 5.91406 18.7305 0.5 12.1914 0.5C5.66406 0.5 0.25 5.91406 0.25 12.4531C0.25 18.9805 5.67578 24.4062 12.2031 24.4062ZM12.2031 22.4141C6.67188 22.4141 2.25391 17.9844 2.25391 12.4531C2.25391 6.92188 6.66016 2.49219 12.1914 2.49219C17.7227 2.49219 22.1641 6.92188 22.1641 12.4531C22.1641 17.9844 17.7344 22.4141 12.2031 22.4141ZM7.77344 15.5234H16.5977C17.1953 15.5234 17.6055 15.2305 17.6055 14.6445C17.6055 14.0469 17.2188 13.7422 16.5977 13.7422H7.77344C7.14062 13.7422 6.75391 14.0469 6.75391 14.6445C6.75391 15.2305 7.16406 15.5234 7.77344 15.5234ZM7.77344 11.1992H16.5977C17.1953 11.1992 17.6055 10.9062 17.6055 10.3086C17.6055 9.71094 17.2188 9.40625 16.5977 9.40625H7.77344C7.14062 9.40625 6.75391 9.71094 6.75391 10.3086C6.75391 10.9062 7.16406 11.1992 7.77344 11.1992Z" fill="#007AFF"/>
</g>
<defs>
<clipPath id="clip0_79_1579">
<rect width="23.9062" height="23.918" fill="white" transform="translate(0.25 0.5)"/>
</clipPath>
</defs>
</svg>
