<svg width="31" height="24" viewBox="0 0 31 24" fill="none" xmlns="http://www.w3.org/2000/svg">
<g clip-path="url(#clip0_79_801)">
<path d="M3.51562 23.0664H6.66797C8.49609 23.0664 9.44531 22.1875 9.44531 20.4531V10.457C9.44531 8.72266 8.49609 7.83203 6.66797 7.83203H3.51562C1.6875 7.83203 0.75 8.72266 0.75 10.457V20.4531C0.75 22.1875 1.6875 23.0664 3.51562 23.0664ZM3.82031 21.2969C2.92969 21.2969 2.61328 20.9922 2.61328 20.1133V10.7969C2.61328 9.90625 2.92969 9.60156 3.82031 9.60156H6.36328C7.26562 9.60156 7.58203 9.90625 7.58203 10.7969V20.1133C7.58203 20.9922 7.26562 21.2969 6.36328 21.2969H3.82031ZM14.0508 23.0664H17.2148C19.043 23.0664 19.9805 22.1875 19.9805 20.4531V7.04688C19.9805 5.3125 19.043 4.42188 17.2148 4.42188H14.0508C12.2227 4.42188 11.2852 5.3125 11.2852 7.04688V20.4531C11.2852 22.1875 12.2227 23.0664 14.0508 23.0664ZM14.3672 21.2969C13.4648 21.2969 13.1484 20.9922 13.1484 20.1133V7.38672C13.1484 6.50781 13.4648 6.19141 14.3672 6.19141H16.9102C17.8125 6.19141 18.1172 6.50781 18.1172 7.38672V20.1133C18.1172 20.9922 17.8125 21.2969 16.9102 21.2969H14.3672ZM24.5859 23.0664H27.75C29.5781 23.0664 30.5273 22.1875 30.5273 20.4531V3.625C30.5273 1.89062 29.5781 1 27.75 1H24.5859C22.7695 1 21.832 1.89062 21.832 3.625V20.4531C21.832 22.1875 22.7695 23.0664 24.5859 23.0664ZM24.9023 21.2969C24.0117 21.2969 23.6953 20.9922 23.6953 20.1133V3.96484C23.6953 3.08594 24.0117 2.76953 24.9023 2.76953H27.4453C28.3477 2.76953 28.6641 3.08594 28.6641 3.96484V20.1133C28.6641 20.9922 28.3477 21.2969 27.4453 21.2969H24.9023Z" fill="#007AFF"/>
</g>
<defs>
<clipPath id="clip0_79_801">
<rect width="29.7773" height="22.0898" fill="white" transform="translate(0.75 1)"/>
</clipPath>
</defs>
</svg>
